<?xml version="1.0" standalone="no"?>
<!DOCTYPE svg PUBLIC "-//W3C//DTD SVG 20010904//EN"
 "http://www.w3.org/TR/2001/REC-SVG-20010904/DTD/svg10.dtd">
<svg version="1.0" xmlns="http://www.w3.org/2000/svg"
 width="512.000000pt" height="512.000000pt" viewBox="0 0 512.000000 512.000000"
 preserveAspectRatio="xMidYMid meet" fill="#f68338">

<g transform="translate(0.000000,512.000000) scale(0.100000,-0.100000)"
stroke="none">
<path d="M1450 4480 l-1105 -639 0 -1281 0 -1281 1108 -640 1108 -639 642 370
c353 204 646 375 650 379 4 5 -8 36 -28 70 -33 57 -38 60 -58 50 -12 -7 -155
-88 -317 -182 -162 -93 -299 -172 -305 -175 -18 -9 37 42 500 463 253 230 476
433 496 452 l35 34 177 -73 c97 -40 173 -76 169 -80 -4 -3 -83 -50 -175 -103
l-168 -97 32 -57 c17 -31 35 -60 39 -64 4 -4 123 59 266 142 l259 150 0 1281
0 1282 -165 95 c-91 52 -237 137 -325 188 -88 50 -512 295 -942 543 -430 249
-783 452 -785 451 -2 0 -500 -288 -1108 -639z m1025 -98 c-2 -3 -209 -55 -460
-117 -250 -62 -458 -115 -462 -118 -10 -11 19 -128 33 -134 7 -3 190 38 405
91 216 53 396 95 401 94 8 -3 -1392 -2438 -1402 -2438 -6 0 -473 1935 -474
1964 -1 16 53 32 454 130 l455 112 -1 30 c-2 41 -23 114 -33 114 -5 0 -109
-25 -232 -55 -122 -30 -224 -53 -225 -52 -2 2 344 203 769 449 l772 445 3
-255 c1 -140 0 -257 -3 -260z m962 58 c414 -239 751 -435 750 -436 -2 -3
-1487 359 -1529 372 -17 5 -18 26 -18 266 l0 260 23 -14 c12 -8 360 -209 774
-448z m232 -466 c509 -125 929 -230 933 -233 8 -7 -463 -1981 -472 -1981 -4 0
-1348 2322 -1393 2406 -11 22 -13 34 -6 34 6 0 428 -102 938 -226z m-369
-1084 l730 -1265 -735 -3 c-404 -1 -1066 -1 -1470 0 l-735 3 732 1268 c402
697 735 1266 740 1265 4 -2 336 -572 738 -1268z m-2615 -525 c102 -423 184
-770 182 -771 -6 -6 -361 -154 -369 -154 -5 0 -8 383 -8 852 0 468 2 849 5
846 3 -3 88 -351 190 -773z m3941 -922 c-4 -4 -365 142 -373 151 -3 2 341
1439 364 1521 4 17 9 -340 11 -819 1 -467 0 -851 -2 -853z m-697 -6 c-20 -18
-334 -304 -699 -637 -364 -333 -666 -605 -670 -605 -4 0 -308 275 -676 611
-369 336 -683 623 -699 637 l-30 26 1405 0 1405 0 -36 -32z m-2503 -417 c599
-548 561 -512 549 -507 -8 4 -1334 768 -1379 794 -8 6 333 153 346 150 4 -1
222 -198 484 -437z"/>
<path d="M3975 3728 c-21 -64 -32 -130 -22 -133 7 -2 32 -9 57 -15 25 -6 52
-13 62 -16 13 -4 19 9 33 67 8 39 15 73 13 74 -4 4 -123 35 -132 35 -4 0 -9
-6 -11 -12z"/>
<path d="M4266 3659 c-13 -38 -26 -96 -26 -115 0 -18 11 -24 66 -38 37 -9 68
-16 69 -14 4 4 35 124 35 135 0 6 -26 16 -57 23 -32 7 -64 15 -70 17 -7 3 -15
-1 -17 -8z"/>
<path d="M3982 994 l-63 -36 32 -56 c17 -32 35 -61 39 -65 6 -7 130 58 130 68
0 5 -70 125 -73 125 -1 0 -30 -16 -65 -36z"/>
</g>
</svg>
