<svg width="70" height="70" viewBox="0 0 70 70" fill="none" xmlns="http://www.w3.org/2000/svg">
<path d="M19.9661 8.65468L5 17.3093V34.6592V52.0091L20.0068 60.6773L35.0135 69.3319L43.7088 64.3206C48.4898 61.5576 52.4582 59.2416 52.5124 59.1874C52.5666 59.1197 52.4041 58.6998 52.1332 58.2393C51.6862 57.4673 51.6185 57.4267 51.3476 57.5621C51.1851 57.6569 49.2483 58.754 47.0542 60.0271C44.86 61.2867 43.0045 62.3567 42.9233 62.3973C42.6795 62.5192 43.4244 61.8285 49.6953 56.1265C53.1219 53.0113 56.1422 50.2619 56.4131 50.0046L56.8871 49.5441L59.2844 50.5328C60.5982 51.0745 61.6275 51.5621 61.5734 51.6163C61.5192 51.6569 60.4492 52.2935 59.2032 53.0113L56.9278 54.3251L57.3612 55.0971C57.5914 55.517 57.8352 55.9098 57.8894 55.9639C57.9436 56.0181 59.5553 55.1648 61.4921 54.0407L65 52.0091V34.6592V17.2958L62.7652 16.0091C61.5327 15.3048 59.5553 14.1536 58.3634 13.4628C57.1716 12.7856 51.4289 9.46732 45.605 6.10841C39.781 2.73595 35 -0.0134906 34.9729 5.34058e-05C34.9458 5.34058e-05 28.2009 3.90073 19.9661 8.65468ZM33.8488 9.98199C33.8217 10.0226 31.0181 10.7269 27.6185 11.5666C24.2325 12.4064 21.4153 13.1242 21.3612 13.1648C21.2257 13.3138 21.6185 14.8985 21.8081 14.9797C21.9029 15.0204 24.3815 14.4651 27.2935 13.7472C30.219 13.0294 32.6569 12.4606 32.7246 12.4741C32.833 12.5147 13.8713 45.4944 13.7359 45.4944C13.6546 45.4944 7.32957 19.2867 7.31603 18.894C7.30248 18.6773 8.03386 18.4605 13.465 17.1332L19.6275 15.6163L19.614 15.21C19.5869 14.6547 19.3025 13.666 19.167 13.666C19.0993 13.666 17.6907 14.0046 16.0248 14.4109C14.3725 14.8172 12.991 15.1287 12.9774 15.1152C12.9503 15.0881 17.6366 12.3657 23.3928 9.03391L33.8488 3.00683L33.8894 6.46055C33.9029 8.35671 33.8894 9.94136 33.8488 9.98199ZM46.8781 9.19644C52.4853 12.4335 57.0497 15.0881 57.0361 15.1016C57.009 15.1423 36.8962 10.2393 36.3273 10.0633C36.0971 9.99554 36.0835 9.71111 36.0835 6.46055V2.9391L36.395 3.12872C36.5576 3.23708 41.2709 5.95942 46.8781 9.19644ZM50.0203 15.508C56.9142 17.201 62.6027 18.6231 62.6569 18.6637C62.7652 18.7585 56.386 45.4944 56.2641 45.4944C56.2099 45.4944 38.0068 14.0452 37.3973 12.9075C37.2483 12.6095 37.2212 12.447 37.316 12.447C37.3973 12.447 43.1129 13.8285 50.0203 15.508ZM45.0226 30.1897L54.9097 47.3229L44.9549 47.3635C39.4831 47.377 30.5169 47.377 25.0451 47.3635L15.0903 47.3229L25.0045 30.149C30.4492 20.7089 34.9594 13.0023 35.0271 13.0159C35.0813 13.0429 39.5779 20.763 45.0226 30.1897ZM9.60497 37.3003C10.9865 43.0294 12.0971 47.7292 12.07 47.7427C11.9887 47.824 7.18059 49.8285 7.07223 49.8285C7.00451 49.8285 6.96388 44.6411 6.96388 38.289C6.96388 31.9504 6.99097 26.7901 7.0316 26.8308C7.07223 26.8714 8.22348 31.5847 9.60497 37.3003ZM62.9819 49.7879C62.9278 49.842 58.0384 47.8646 57.93 47.7427C57.8894 47.7156 62.5485 28.2529 62.86 27.1423C62.9142 26.912 62.9819 31.7472 63.009 38.2348C63.0226 44.5599 63.009 49.7608 62.9819 49.7879ZM53.5418 49.8691C53.2709 50.1129 49.0181 53.9865 44.0745 58.4967C39.1445 63.0068 35.0542 66.6908 35 66.6908C34.9458 66.6908 30.8284 62.9662 25.8442 58.4154C20.8465 53.8646 16.5937 49.9775 16.377 49.7879L15.9707 49.4357H35H54.0293L53.5418 49.8691ZM19.6411 55.517C27.754 62.9391 27.2393 62.4515 27.0767 62.3838C26.9684 62.3296 9.00903 51.982 8.39955 51.6298C8.2912 51.5486 12.9097 49.5576 13.0858 49.5982C13.14 49.6118 16.0926 52.28 19.6411 55.517Z" fill="#F68338"/>
<path d="M54.1648 18.8398C53.8804 19.7066 53.7314 20.6005 53.8668 20.6411C53.9616 20.6682 54.3002 20.763 54.6388 20.8443C54.9774 20.9256 55.3431 21.0204 55.4786 21.061C55.6546 21.1152 55.7359 20.9391 55.9255 20.1535C56.0339 19.6253 56.1287 19.1648 56.1016 19.1513C56.0474 19.0971 54.4357 18.6772 54.3138 18.6772C54.2596 18.6772 54.1919 18.7585 54.1648 18.8398Z" fill="#F68338"/>
<path d="M58.1061 19.7743C57.93 20.289 57.754 21.0745 57.754 21.3319C57.754 21.5757 57.9029 21.6569 58.6479 21.8465C59.149 21.9684 59.5689 22.0633 59.5824 22.0362C59.6366 21.982 60.0564 20.3567 60.0564 20.2077C60.0564 20.1265 59.7043 19.991 59.2844 19.8962C58.851 19.8014 58.4176 19.693 58.3363 19.666C58.2415 19.6253 58.1332 19.6795 58.1061 19.7743Z" fill="#F68338"/>
<path d="M54.2596 55.8691L53.4063 56.3567L53.8397 57.1152C54.07 57.5486 54.3138 57.9414 54.3679 57.9955C54.4492 58.0903 56.1287 57.21 56.1287 57.0745C56.1287 57.0068 55.1806 55.3815 55.14 55.3815C55.1264 55.3815 54.7336 55.5982 54.2596 55.8691Z" fill="#F68338"/>
<path d="M35.196 25.108C36.0547 25.108 36.8853 25.1827 37.688 25.332C38.4907 25.4627 39.284 25.7147 40.068 26.088L39.452 28.216C38.6493 27.8427 37.9213 27.5813 37.268 27.432C36.6333 27.264 35.98 27.18 35.308 27.18C34.244 27.18 33.404 27.4133 32.788 27.88C32.172 28.3467 31.864 29 31.864 29.84C31.864 30.5493 32.088 31.1187 32.536 31.548C33.0027 31.9773 33.7587 32.3507 34.804 32.668L36.568 33.228C38.1733 33.732 39.3027 34.4227 39.956 35.3C40.628 36.1587 40.964 37.1293 40.964 38.212C40.964 38.9773 40.8053 39.6773 40.488 40.312C40.1893 40.928 39.76 41.46 39.2 41.908C38.6587 42.3373 38.0147 42.6733 37.268 42.916C36.5213 43.14 35.7 43.252 34.804 43.252C33.908 43.252 32.9933 43.168 32.06 43C31.1453 42.8507 30.2307 42.5613 29.316 42.132L29.932 40.032C30.7347 40.424 31.5187 40.7133 32.284 40.9C33.0493 41.0867 33.852 41.18 34.692 41.18C35.7 41.18 36.5587 40.9467 37.268 40.48C37.9773 40.0133 38.332 39.3227 38.332 38.408C38.332 38.072 38.276 37.764 38.164 37.484C38.0707 37.1853 37.8933 36.9053 37.632 36.644C37.3893 36.3827 37.0533 36.14 36.624 35.916C36.1947 35.692 35.6533 35.4773 35 35.272L33.236 34.712C31.948 34.3013 30.9587 33.7413 30.268 33.032C29.5773 32.3227 29.232 31.3613 29.232 30.148C29.232 28.5987 29.736 27.376 30.744 26.48C31.7707 25.5653 33.2547 25.108 35.196 25.108Z" fill="#F68338"/>
</svg>
