<svg width="60" height="70" viewBox="0 0 60 70" fill="#000" xmlns="http://www.w3.org/2000/svg">
<path d="M14.9661 8.65468L0 17.3093V34.6592V52.0091L15.0068 60.6773L30.0135 69.3319L38.7088 64.3206C43.4898 61.5576 47.4582 59.2416 47.5124 59.1874C47.5666 59.1197 47.4041 58.6998 47.1332 58.2393C46.6862 57.4673 46.6185 57.4267 46.3476 57.5621C46.1851 57.6569 44.2483 58.754 42.0542 60.0271C39.86 61.2867 38.0045 62.3567 37.9233 62.3973C37.6795 62.5192 38.4244 61.8285 44.6953 56.1265C48.1219 53.0113 51.1422 50.2619 51.4131 50.0046L51.8871 49.5441L54.2844 50.5328C55.5982 51.0745 56.6275 51.5621 56.5734 51.6163C56.5192 51.6569 55.4492 52.2935 54.2032 53.0113L51.9278 54.3251L52.3612 55.0971C52.5914 55.517 52.8352 55.9098 52.8894 55.9639C52.9436 56.0181 54.5553 55.1648 56.4921 54.0407L60 52.0091V34.6592V17.2958L57.7652 16.0091C56.5327 15.3048 54.5553 14.1536 53.3634 13.4628C52.1716 12.7856 46.4289 9.46732 40.605 6.10841C34.781 2.73595 30 -0.0134906 29.9729 5.34058e-05C29.9458 5.34058e-05 23.2009 3.90073 14.9661 8.65468ZM28.8488 9.98199C28.8217 10.0226 26.0181 10.7269 22.6185 11.5666C19.2325 12.4064 16.4153 13.1242 16.3612 13.1648C16.2257 13.3138 16.6185 14.8985 16.8081 14.9797C16.9029 15.0204 19.3815 14.4651 22.2935 13.7472C25.219 13.0294 27.6569 12.4606 27.7246 12.4741C27.833 12.5147 8.87133 45.4944 8.73589 45.4944C8.65463 45.4944 2.32957 19.2867 2.31603 18.894C2.30248 18.6773 3.03386 18.4605 8.46501 17.1332L14.6275 15.6163L14.614 15.21C14.5869 14.6547 14.3025 13.666 14.167 13.666C14.0993 13.666 12.6907 14.0046 11.0248 14.4109C9.37246 14.8172 7.99097 15.1287 7.97743 15.1152C7.95034 15.0881 12.6366 12.3657 18.3928 9.03391L28.8488 3.00683L28.8894 6.46055C28.9029 8.35671 28.8894 9.94136 28.8488 9.98199ZM41.8781 9.19644C47.4853 12.4335 52.0497 15.0881 52.0361 15.1016C52.009 15.1423 31.8962 10.2393 31.3273 10.0633C31.0971 9.99554 31.0835 9.71111 31.0835 6.46055V2.9391L31.395 3.12872C31.5576 3.23708 36.2709 5.95942 41.8781 9.19644ZM45.0203 15.508C51.9142 17.201 57.6027 18.6231 57.6569 18.6637C57.7652 18.7585 51.386 45.4944 51.2641 45.4944C51.2099 45.4944 33.0068 14.0452 32.3973 12.9075C32.2483 12.6095 32.2212 12.447 32.316 12.447C32.3973 12.447 38.1129 13.8285 45.0203 15.508ZM40.0226 30.1897L49.9097 47.3229L39.9549 47.3635C34.4831 47.377 25.5169 47.377 20.0451 47.3635L10.0903 47.3229L20.0045 30.149C25.4492 20.7089 29.9594 13.0023 30.0271 13.0159C30.0813 13.0429 34.5779 20.763 40.0226 30.1897ZM4.60497 37.3003C5.98646 43.0294 7.09707 47.7292 7.06998 47.7427C6.98871 47.824 2.18059 49.8285 2.07223 49.8285C2.00451 49.8285 1.96388 44.6411 1.96388 38.289C1.96388 31.9504 1.99097 26.7901 2.0316 26.8308C2.07223 26.8714 3.22348 31.5847 4.60497 37.3003ZM57.9819 49.7879C57.9278 49.842 53.0384 47.8646 52.93 47.7427C52.8894 47.7156 57.5485 28.2529 57.86 27.1423C57.9142 26.912 57.9819 31.7472 58.009 38.2348C58.0226 44.5599 58.009 49.7608 57.9819 49.7879ZM48.5418 49.8691C48.2709 50.1129 44.0181 53.9865 39.0745 58.4967C34.1445 63.0068 30.0542 66.6908 30 66.6908C29.9458 66.6908 25.8284 62.9662 20.8442 58.4154C15.8465 53.8646 11.5937 49.9775 11.377 49.7879L10.9707 49.4357H30H49.0293L48.5418 49.8691ZM14.6411 55.517C22.754 62.9391 22.2393 62.4515 22.0767 62.3838C21.9684 62.3296 4.00903 51.982 3.39955 51.6298C3.2912 51.5486 7.90971 49.5576 8.08578 49.5982C8.13996 49.6118 11.0926 52.28 14.6411 55.517Z" />
<path d="M49.1648 18.8398C48.8804 19.7066 48.7314 20.6005 48.8668 20.6411C48.9616 20.6682 49.3002 20.763 49.6388 20.8443C49.9774 20.9256 50.3431 21.0204 50.4786 21.061C50.6546 21.1152 50.7359 20.9391 50.9255 20.1535C51.0339 19.6253 51.1287 19.1648 51.1016 19.1513C51.0474 19.0971 49.4357 18.6772 49.3138 18.6772C49.2596 18.6772 49.1919 18.7585 49.1648 18.8398Z" />
<path d="M53.1061 19.7743C52.93 20.289 52.754 21.0745 52.754 21.3319C52.754 21.5757 52.9029 21.6569 53.6479 21.8465C54.149 21.9684 54.5689 22.0633 54.5824 22.0362C54.6366 21.982 55.0564 20.3567 55.0564 20.2077C55.0564 20.1265 54.7043 19.991 54.2844 19.8962C53.851 19.8014 53.4176 19.693 53.3363 19.666C53.2415 19.6253 53.1332 19.6795 53.1061 19.7743Z" />
<path d="M49.2596 55.8691L48.4063 56.3567L48.8397 57.1152C49.07 57.5486 49.3138 57.9414 49.3679 57.9955C49.4492 58.0903 51.1287 57.21 51.1287 57.0745C51.1287 57.0068 50.1806 55.3815 50.14 55.3815C50.1264 55.3815 49.7336 55.5982 49.2596 55.8691Z" />
<path d="M30.196 25.108C31.0547 25.108 31.8853 25.1827 32.688 25.332C33.4907 25.4627 34.284 25.7147 35.068 26.088L34.452 28.216C33.6493 27.8427 32.9213 27.5813 32.268 27.432C31.6333 27.264 30.98 27.18 30.308 27.18C29.244 27.18 28.404 27.4133 27.788 27.88C27.172 28.3467 26.864 29 26.864 29.84C26.864 30.5493 27.088 31.1187 27.536 31.548C28.0027 31.9773 28.7587 32.3507 29.804 32.668L31.568 33.228C33.1733 33.732 34.3027 34.4227 34.956 35.3C35.628 36.1587 35.964 37.1293 35.964 38.212C35.964 38.9773 35.8053 39.6773 35.488 40.312C35.1893 40.928 34.76 41.46 34.2 41.908C33.6587 42.3373 33.0147 42.6733 32.268 42.916C31.5213 43.14 30.7 43.252 29.804 43.252C28.908 43.252 27.9933 43.168 27.06 43C26.1453 42.8507 25.2307 42.5613 24.316 42.132L24.932 40.032C25.7347 40.424 26.5187 40.7133 27.284 40.9C28.0493 41.0867 28.852 41.18 29.692 41.18C30.7 41.18 31.5587 40.9467 32.268 40.48C32.9773 40.0133 33.332 39.3227 33.332 38.408C33.332 38.072 33.276 37.764 33.164 37.484C33.0707 37.1853 32.8933 36.9053 32.632 36.644C32.3893 36.3827 32.0533 36.14 31.624 35.916C31.1947 35.692 30.6533 35.4773 30 35.272L28.236 34.712C26.948 34.3013 25.9587 33.7413 25.268 33.032C24.5773 32.3227 24.232 31.3613 24.232 30.148C24.232 28.5987 24.736 27.376 25.744 26.48C26.7707 25.5653 28.2547 25.108 30.196 25.108Z" />
</svg>
