<svg width="60" height="60" viewBox="0 0 60 60" fill="none" xmlns="http://www.w3.org/2000/svg">
<path d="M16.9922 7.5L4.04297 14.9883V30V45.0117L17.0273 52.5117L30.0117 60L37.5352 55.6641C41.6719 53.2734 45.1055 51.2695 45.1523 51.2227C45.1992 51.1641 45.0586 50.8008 44.8242 50.4023C44.4375 49.7344 44.3789 49.6992 44.1445 49.8164C44.0039 49.8984 42.3281 50.8477 40.4297 51.9492C38.5312 53.0391 36.9258 53.9648 36.8555 54C36.6445 54.1055 37.2891 53.5078 42.7148 48.5742C45.6797 45.8789 48.293 43.5 48.5273 43.2773L48.9375 42.8789L51.0117 43.7344C52.1484 44.2031 53.0391 44.625 52.9922 44.6719C52.9453 44.707 52.0195 45.2578 50.9414 45.8789L48.9727 47.0156L49.3477 47.6836C49.5469 48.0469 49.7578 48.3867 49.8047 48.4336C49.8516 48.4805 51.2461 47.7422 52.9219 46.7695L55.957 45.0117V30V14.9766L54.0234 13.8633C52.957 13.2539 51.2461 12.2578 50.2148 11.6602C49.1836 11.0742 44.2148 8.20312 39.1758 5.29688C34.1367 2.37891 30 0 29.9766 0.0117188C29.9531 0.0117188 24.1172 3.38672 16.9922 7.5ZM29.0039 8.64844C28.9805 8.68359 26.5547 9.29297 23.6133 10.0195C20.6836 10.7461 18.2461 11.3672 18.1992 11.4023C18.082 11.5312 18.4219 12.9023 18.5859 12.9727C18.668 13.0078 20.8125 12.5273 23.332 11.9062C25.8633 11.2852 27.9727 10.793 28.0312 10.8047C28.125 10.8398 11.7188 39.375 11.6016 39.375C11.5312 39.375 6.05859 16.6992 6.04688 16.3594C6.03516 16.1719 6.66797 15.9844 11.3672 14.8359L16.6992 13.5234L16.6875 13.1719C16.6641 12.6914 16.418 11.8359 16.3008 11.8359C16.2422 11.8359 15.0234 12.1289 13.582 12.4805C12.1523 12.832 10.957 13.1016 10.9453 13.0898C10.9219 13.0664 14.9766 10.7109 19.957 7.82812L29.0039 2.61328L29.0391 5.60156C29.0508 7.24219 29.0391 8.61328 29.0039 8.64844ZM40.2773 7.96875C45.1289 10.7695 49.0781 13.0664 49.0664 13.0781C49.043 13.1133 31.6406 8.87109 31.1484 8.71875C30.9492 8.66016 30.9375 8.41406 30.9375 5.60156V2.55469L31.207 2.71875C31.3477 2.8125 35.4258 5.16797 40.2773 7.96875ZM42.9961 13.4297C48.9609 14.8945 53.8828 16.125 53.9297 16.1602C54.0234 16.2422 48.5039 39.375 48.3984 39.375C48.3516 39.375 32.6016 12.1641 32.0742 11.1797C31.9453 10.9219 31.9219 10.7812 32.0039 10.7812C32.0742 10.7812 37.0195 11.9766 42.9961 13.4297ZM38.6719 26.1328L47.2266 40.957L38.6133 40.9922C33.8789 41.0039 26.1211 41.0039 21.3867 40.9922L12.7734 40.957L21.3516 26.0977C26.0625 17.9297 29.9648 11.2617 30.0234 11.2734C30.0703 11.2969 33.9609 17.9766 38.6719 26.1328ZM8.02734 32.2852C9.22266 37.2422 10.1836 41.3086 10.1602 41.3203C10.0898 41.3906 5.92969 43.125 5.83594 43.125C5.77734 43.125 5.74219 38.6367 5.74219 33.1406C5.74219 27.6562 5.76562 23.1914 5.80078 23.2266C5.83594 23.2617 6.83203 27.3398 8.02734 32.2852ZM54.2109 43.0898C54.1641 43.1367 49.9336 41.4258 49.8398 41.3203C49.8047 41.2969 53.8359 24.457 54.1055 23.4961C54.1523 23.2969 54.2109 27.4805 54.2344 33.0938C54.2461 38.5664 54.2344 43.0664 54.2109 43.0898ZM46.043 43.1602C45.8086 43.3711 42.1289 46.7227 37.8516 50.625C33.5859 54.5273 30.0469 57.7148 30 57.7148C29.9531 57.7148 26.3906 54.4922 22.0781 50.5547C17.7539 46.6172 14.0742 43.2539 13.8867 43.0898L13.5352 42.7852H30H46.4648L46.043 43.1602ZM16.7109 48.0469C23.7305 54.4688 23.2852 54.0469 23.1445 53.9883C23.0508 53.9414 7.51172 44.9883 6.98438 44.6836C6.89062 44.6133 10.8867 42.8906 11.0391 42.9258C11.0859 42.9375 13.6406 45.2461 16.7109 48.0469Z" fill="#F68338"/>
<path d="M46.582 16.3125C46.3359 17.0625 46.207 17.8359 46.3242 17.8711C46.4063 17.8945 46.6992 17.9766 46.9922 18.0469C47.2852 18.1172 47.6016 18.1992 47.7188 18.2344C47.8711 18.2812 47.9414 18.1289 48.1055 17.4492C48.1992 16.9922 48.2813 16.5937 48.2578 16.582C48.2109 16.5352 46.8164 16.1719 46.7109 16.1719C46.6641 16.1719 46.6055 16.2422 46.582 16.3125Z" fill="#F68338"/>
<path d="M49.9922 17.1211C49.8398 17.5664 49.6875 18.2461 49.6875 18.4688C49.6875 18.6797 49.8164 18.75 50.4609 18.9141C50.8945 19.0195 51.2578 19.1016 51.2695 19.0781C51.3164 19.0313 51.6797 17.625 51.6797 17.4961C51.6797 17.4258 51.375 17.3086 51.0117 17.2266C50.6367 17.1445 50.2617 17.0508 50.1914 17.0273C50.1094 16.9922 50.0156 17.0391 49.9922 17.1211Z" fill="#F68338"/>
<path d="M46.6641 48.3516L45.9258 48.7734L46.3008 49.4297C46.5 49.8047 46.7109 50.1445 46.7578 50.1914C46.8281 50.2734 48.2812 49.5117 48.2812 49.3945C48.2812 49.3359 47.4609 47.9297 47.4258 47.9297C47.4141 47.9297 47.0742 48.1172 46.6641 48.3516Z" fill="#F68338"/>
<path d="M30.54 38.32C28.66 38.32 27.1933 37.8933 26.14 37.04C25.1 36.1867 24.5733 34.94 24.56 33.3H26.7C26.74 35.4333 28.0333 36.5 30.58 36.5C31.6333 36.5 32.44 36.3 33 35.9C33.5733 35.4867 33.86 34.8933 33.86 34.12C33.86 33.4933 33.6267 33.0133 33.16 32.68C32.6933 32.3333 31.8533 32.0267 30.64 31.76L29.42 31.5C27.9533 31.2067 26.8467 30.7267 26.1 30.06C25.3533 29.3933 24.98 28.4733 24.98 27.3C24.98 26.1267 25.4333 25.1933 26.34 24.5C27.2467 23.7933 28.4733 23.44 30.02 23.44C31.8867 23.44 33.2867 23.84 34.22 24.64C35.1667 25.44 35.6533 26.54 35.68 27.94H33.56C33.4933 27.02 33.1867 26.3467 32.64 25.92C32.1067 25.48 31.24 25.26 30.04 25.26C29.1067 25.26 28.3933 25.4333 27.9 25.78C27.4067 26.1267 27.16 26.62 27.16 27.26C27.16 27.9133 27.38 28.4067 27.82 28.74C28.26 29.1 29.0733 29.4067 30.26 29.66L31.5 29.92C33.1267 30.2667 34.2933 30.7667 35 31.42C35.72 32.0733 36.08 32.9533 36.08 34.06C36.08 35.38 35.5867 36.42 34.6 37.18C33.6267 37.94 32.2733 38.32 30.54 38.32Z" fill="#F68338"/>
</svg>
